<svg xmlns="http://www.w3.org/2000/svg" viewBox="0 0 32 32">
  <defs>
    <linearGradient id="g" x1="0%" y1="0%" x2="100%" y2="100%">
      <stop offset="0%" style="stop-color:#22D3EE"/>
      <stop offset="100%" style="stop-color:#A78BFA"/>
    </linearGradient>
  </defs>
  <rect width="32" height="32" rx="8" fill="#0F172A"/>
  <path d="M16 6a6 6 0 0 1 6 6v4a6 6 0 0 1-12 0v-4a6 6 0 0 1 6-6zm0 2a4 4 0 0 0-4 4v4a4 4 0 0 0 8 0v-4a4 4 0 0 0-4-4z" fill="url(#g)"/>
  <path d="M10 18a6 6 0 0 0 12 0" stroke="url(#g)" stroke-width="2" fill="none" stroke-linecap="round"/>
  <line x1="16" y1="24" x2="16" y2="28" stroke="url(#g)" stroke-width="2" stroke-linecap="round"/>
</svg>
